# xmcd
#
# Track frame offsets:
#	150
#	24226
#	38104
#	57304
#	75426
#
# Disc length: 1205 seconds
#
# Revision: 0
# Processed by: cddbd v1.5.1PL0 Copyright (c) Steve Scherf et al.
# Submitted via: dBpowerAMP V4.0
#
DISCID=2e04b305
DTITLE=NewFoundLandBand - Songs from acadian refuge
DYEAR=1900
DGENRE=
TTITLE0=Load Out
TTITLE1=Memphis Skyline
TTITLE2=Follow The Revolution
TTITLE3=A long way from Roseville County
TTITLE4=Betty Mae
EXTD=
EXTT0=
EXTT1=
EXTT2=
EXTT3=
EXTT4=
PLAYORDER=
